<?xml version="1.0" encoding="utf-8"?>
<!-- Generator: Adobe Illustrator 21.0.0, SVG Export Plug-In . SVG Version: 6.00 Build 0)  -->
<svg version="1.1" id="Layer_1" xmlns="http://www.w3.org/2000/svg" xmlns:xlink="http://www.w3.org/1999/xlink" x="0px" y="0px"
	 viewBox="0 0 550 234" style="enable-background:new 0 0 550 234;" xml:space="preserve">
<style type="text/css">
	.st0{fill:#EEF0F5;}
	.st1{fill:#E2E6EF;}
	.st2{fill:url(#XMLID_2_);}
	.st3{fill:#BFCBEB;}
	.st4{fill:#9EAFDD;}
	.st5{fill:#2F3957;}
	.st6{fill:#65749F;}
	.st7{fill:#869BD4;}
	.st8{fill:#232B41;}
	.st9{fill:#E5EAF7;}
	.st10{fill:#E54750;}
	.st11{enable-background:new    ;}
	.st12{fill:#6D7FB6;}
	.st13{fill:#596179;}
	.st14{fill:#D9E0F3;}
	.st15{fill:url(#XMLID_7_);}
	.st16{fill:url(#SVGID_1_);}
</style>
<path id="XMLID_41_" class="st0" d="M220.5,75.7c0,0-16.8,10.5-16.5,24.6c0.4,14.1,14.7,18.8,14.5,26.8c-0.3,8-21.2,30.7-6.2,45.5
	c15,14.7,47.6,1.1,60.2,1.9c12.6,0.8,16.1,17.7,34.2,17.8c18.1,0.1,23.8-17.4,33.5-34.7c9.7-17.2,42.3,3.5,46.2-18
	c3.9-21.5-11.7-28.7-7-45.4s-6.9-38.5-28.6-47.8c-21.7-9.3-16.4-42.7-46.6-34.2s-77.1,5.9-77.9,44.7
	C226.1,70.6,220.5,75.7,220.5,75.7z"/>
<path id="XMLID_126_" class="st1" d="M299.5,171.6c-12.4,0-14.4-9.4-24.2-12.2c-8.3-2.4-19.7,3.2-28.5,3
	c-9.3-0.2-18.6-2.5-24.1-10.7c-8.3-12.3,1.5-20.7,2.6-32.2c0.6-7.2-8.2-13-8.4-22.2c-0.3-12.4,8.5-14.5,13.4-23.6
	c4.5-8.3,2.3-18.5,8.5-26.9c6.8-9.4,18.3-13.3,29.1-16c21.3-5.3,42-13.3,56.6,6.5c7.5,10.1,12.8,12.2,22.2,20.5
	c13.1,11.5,11.7,21.4,13.3,36.9c2,20,14.3,43.7-15.6,46.7c-13.1,1.3-11.7-0.3-19.1,11.9C319.3,162.9,312,171.7,299.5,171.6z"/>
<linearGradient id="XMLID_2_" gradientUnits="userSpaceOnUse" x1="298.5645" y1="2.0002" x2="298.5645" y2="28.9224" gradientTransform="matrix(1 0 0 -1 0 236)">
	<stop  offset="0" style="stop-color:#FFFFFF"/>
	<stop  offset="9.849999e-02" style="stop-color:#F7F8FB"/>
	<stop  offset="0.4121" style="stop-color:#E1E6EF"/>
	<stop  offset="0.7167" style="stop-color:#D4DBE8"/>
	<stop  offset="1" style="stop-color:#D0D7E6"/>
</linearGradient>
<path id="XMLID_68_" class="st2" d="M238.3,211.6c-29.4,10.3-10.5,23.8,35.1,21.5c45.6-2.3,76.5,6.9,95.1-6.9
	c18.5-13.9-22.6-19.1-64.8-19.1C261.4,207.1,250.3,207.3,238.3,211.6z"/>
<path id="XMLID_3_" class="st3" d="M294.9,41.7c-33.1,0-49.8,21.1-53.4,47.2c-3.7,26.1-6.2,33.2-17.5,20.2
	c-11.3-12.9-15.8,3.7-3.7,16.3c12.2,12.7,17,11.5,15.6,30.4c-1.4,18.8-4.2,37.7,9.9,37.1c14.1-0.6,14.7-14.9,22.6-14.9
	s8.8,17.5,23.2,14.9c14.4-2.5,9.4-14.1,21.2-15.8c4-0.6,3.7,13.2,20.6,12.4c17-0.8,13-10.7,18.4-14.3c5.4-3.7,12.4,6.7,21.5-0.3
	c9-7,0.3-12.6,3.7-20.8c3.4-8.2,0-16.9-4.5-16.9s-8.8,8.7-14.4,7.6c-5.7-1.1-8.5-9.3-8.5-20.8C349.5,112.6,356,41.7,294.9,41.7z"/>
<g id="XMLID_64_">
	<path id="XMLID_66_" class="st4" d="M293.9,73.9c20.4-2.9,32-11.1,32-11.1l10.6-1.9L288.3,42c-28.7,2.6-43.4,22.6-46.8,46.9
		c-0.4,2.8-0.8,5.3-1.1,7.7c1.3-0.6,2.4-1.1,3.3-1.8c3.8-2.9,11.4-27.3,11.4-27.3S273.5,76.8,293.9,73.9z"/>
	<path id="XMLID_67_" class="st4" d="M231.4,115.3c-2-0.6-4.4-2.6-7.4-6.1c-11.3-12.9-15.8,3.7-3.7,16.3c2,2.1,3.8,3.8,5.4,5.3
		C227.7,129.1,231.4,124.8,231.4,115.3z"/>
</g>
<path id="XMLID_56_" class="st5" d="M268.4,35.2c0,0,0.5-1.1-4.8-8c-5.4-6.9-8-11.6,1.8-14.9c9.8-3.3,35.6-19.5,48-8.5
	c12.4,11,36.3,20.1,44.1,30c7.8,9.9-20.9,27.1-20.9,27.1l-61.9-14.7L268.4,35.2z"/>
<ellipse id="XMLID_4_" class="st6" cx="271" cy="87.7" rx="5.8" ry="5.8"/>
<ellipse id="XMLID_5_" class="st6" cx="304.3" cy="87.7" rx="5.8" ry="5.8"/>
<ellipse id="XMLID_6_" class="st6" cx="287.3" cy="117.5" rx="4.5" ry="12.5"/>
<path id="XMLID_10_" class="st5" d="M268.8,43.3c0,0-17.8,4.6-16.5,10.4c1.3,5.8,26.3,17.1,48.3,13c5.7-1.1,16.9-7,16.9-7
	L268.8,43.3z"/>
<path id="XMLID_54_" class="st7" d="M321.9,114.2c0,0,6.5,17.4,6.4,27.6c-0.1,10.2,8.4,7.7,10.2,5.4c1.8-2.2,4.8-10.3,5.4-17.8
	L321.9,114.2z"/>
<path id="XMLID_12_" class="st3" d="M321.9,113.9c0,0,9.7,12.4,9.7,22.6c0,10.2,9.8,7.5,11.6-4c1.9-11.5-1.4-18.6-1.4-18.6H321.9z"
	/>
<path id="XMLID_11_" class="st8" d="M268.4,43.5v-8.4c0,0,10.4,7,31.2,11.6c13.7,3.1,27.9,5.4,36,6.6c3,0.4,4.4,3.9,2.6,6.3l0,0
	c-0.8,1.1-2.1,1.7-3.5,1.5l-17.3-1.5C317.3,59.8,279.7,56.5,268.4,43.5z"/>
<path id="XMLID_8_" class="st8" d="M224.2,128.2L224.2,128.2c-1.5,0.2-2.9-0.8-3.1-2.3l-3.8-23.6l5.4-0.9l3.8,23.6
	C226.7,126.6,225.7,127.9,224.2,128.2z"/>
<polygon id="XMLID_13_" class="st9" points="201.4,107.1 177.2,77.6 190.9,42.1 228.7,36.1 252.8,65.5 239.2,101 "/>
<polygon id="XMLID_14_" class="st10" points="202.5,104.2 180.3,77.1 192.9,44.5 227.6,39 249.8,66 237.2,98.6 "/>
<g id="XMLID_15_">
	<g>
	</g>
	<g>
	</g>
	<g class="st11">
		<path class="st9" d="M192.6,85l3.3-15.8l2.1-0.3l8.4,13.9l-2.2,0.4l-2.4-4.2l-6.2,1l-0.9,4.8L192.6,85z M195.9,78.2l5-0.8
			l-2.2-3.9c-0.7-1.2-1.2-2.1-1.5-2.9c0,1-0.1,2-0.3,3L195.9,78.2z"/>
		<path class="st9" d="M207.9,82.5l-2.4-14.8l2-0.3l2.1,13.1l7.3-1.2l0.3,1.8L207.9,82.5z"/>
		<path class="st9" d="M221.6,80.3l-2.1-13.1l-4.9,0.8l-0.3-1.8l11.7-1.9l0.3,1.8l-4.9,0.8l2.1,13.1L221.6,80.3z"/>
		<path class="st9" d="M228.4,71.8c-0.4-2.5,0-4.5,1-6.1c1.1-1.6,2.7-2.6,4.8-2.9c1.4-0.2,2.6-0.1,3.8,0.4c1.2,0.5,2.2,1.3,2.9,2.3
			c0.8,1.1,1.3,2.4,1.5,3.8c0.2,1.5,0.2,2.9-0.3,4.2c-0.4,1.3-1.1,2.3-2.1,3.1c-1,0.8-2.2,1.3-3.4,1.5c-1.4,0.2-2.7,0.1-3.9-0.4
			s-2.2-1.3-2.9-2.4C229,74.2,228.6,73.1,228.4,71.8z M230.4,71.5c0.3,1.8,1,3.1,2.1,4c1.1,0.9,2.4,1.2,3.8,1c1.5-0.2,2.6-1,3.4-2.1
			c0.8-1.2,1-2.7,0.7-4.7c-0.2-1.2-0.6-2.2-1.1-3.1c-0.6-0.8-1.3-1.4-2.1-1.8c-0.9-0.4-1.8-0.5-2.8-0.3c-1.4,0.2-2.5,0.9-3.3,2
			C230.3,67.5,230,69.2,230.4,71.5z"/>
	</g>
</g>
<path id="XMLID_61_" class="st12" d="M296.9,18.7c0,0,3.3,3.1,7,1.6l2.4,2.8c0,0-3.8,3.4-3.4,6.7c0.3,3.3,2.1,7.8-5.4,8.9
	c-5.4,0.8-6.2,0.2-6.2,0.2s-4.3-3-5.7-5.8c-1.4-2.8,2.2-5,2.3-7.9c0.1-2.9-0.8-5.6-0.8-5.6l2.5-1.8
	C289.6,17.9,292.7,20.5,296.9,18.7z"/>
<path id="XMLID_9_" class="st7" d="M285.9,133.9c0,0,6.1,1.4,9-3.9c0,0-0.4,5.9-4.5,7C286.4,138.2,285.9,133.9,285.9,133.9z"/>
<path id="XMLID_69_" class="st13" d="M357.4,33.8c-7.8-9.9-31.7-19-44.1-30c-9.1-8.1-25.6-1.5-37.6,3.9c0,0,23-7.4,30.5-2.5
	c7.5,5,34.6,27.7,42.6,30.8c8,3.1-2.5,17.9-2.5,17.9C353.9,48.1,362,39.7,357.4,33.8z"/>
<path id="XMLID_63_" class="st14" d="M343.8,129.4c0,0-0.2-9.6-2-15s-4.7-9.4-4.7-9.4S344.1,122.3,343.8,129.4z"/>
<path id="XMLID_72_" class="st14" d="M377.4,142.1l-0.3-0.7c-1.1-2.5-2.8-4.1-4.8-4.1c-4.5,0-8.8,8.7-14.4,7.6
	c-5.7-1.1-8.5-9.3-8.5-20.8c0-7.1,2.4-36.5-9.8-58.2l-3.2-5c0,0,10.2,18.3,10.2,37.6c0,19.2-4,48.8,8.3,50.7
	S369.7,134.4,377.4,142.1z"/>
<g id="XMLID_71_">
	<path id="XMLID_73_" class="st4" d="M351.7,175.3c5.4-3.7,12.6,6.7,21.6-0.3c4.5-3.5,4.7-6.7,4.1-9.9l0,0c-1.2,6.9-9,7.7-18.2,4.9
		c-9.1-2.8-12.8,1.8-15.5,10.1c-2.7,8.3-17.1,2.3-26.3-4c-9.1-6.3-10.9,0.7-21.9,6.2c-11,5.5-13.6-6.8-24.7-9
		c-11-2.2-18.4,12.6-27.8,11.8c-6.9-0.6-7.5-19.4-7.4-29.5c0,0.1,0,0.2,0,0.3c-1.4,18.8-4.2,37.7,9.9,37.1
		c14.1-0.6,14.7-14.9,22.6-14.9c7.9,0,8.8,17.5,23.2,14.9c14.4-2.5,9.4-14.1,21.2-15.8c4-0.6,3.7,13.2,20.6,12.4
		C350.3,188.8,346.4,178.9,351.7,175.3z"/>
	<path id="XMLID_74_" class="st4" d="M236.1,149.4L236.1,149.4L236.1,149.4z"/>
</g>
<g id="XMLID_233_">
	
		<linearGradient id="XMLID_7_" gradientUnits="userSpaceOnUse" x1="99.108" y1="213.238" x2="99.108" y2="24.763" gradientTransform="matrix(1 0 0 -1 0 236)">
		<stop  offset="0" style="stop-color:#E1E5EF"/>
		<stop  offset="0.2371" style="stop-color:#D4DBE8"/>
		<stop  offset="0.4612" style="stop-color:#D0D7E6"/>
		<stop  offset="1" style="stop-color:#C6CDDB"/>
	</linearGradient>
	<path id="XMLID_237_" class="st15" d="M111.7,174.9H20.6L12,138.3l97.6-115.5h52.7v113.4h23.9v38.8h-23.9v36.4h-50.5V174.9z
		 M111.7,136.4V82.6l-44.9,53.7L111.7,136.4L111.7,136.4z"/>
</g>
<g>
	<linearGradient id="SVGID_1_" gradientUnits="userSpaceOnUse" x1="404.0879" y1="115.1008" x2="533.9863" y2="115.1008">
		<stop  offset="0" style="stop-color:#E1E5EF"/>
		<stop  offset="0.2371" style="stop-color:#D4DBE8"/>
		<stop  offset="0.4612" style="stop-color:#D0D7E6"/>
		<stop  offset="1" style="stop-color:#C6CDDB"/>
	</linearGradient>
	<path class="st16" d="M412.9,164.9c7.6,4,25.2,11.3,42.7,11.3c22.4,0,33.7-10.8,33.7-24.6c0-18.1-18.1-26.3-37.1-26.3h-17.5V94.4
		h16.7c14.4-0.3,32.8-5.7,32.8-21.2c0-11-9.1-19.2-27.2-19.2c-15,0-30.8,6.5-38.5,11l-8.8-31.1c11-7.1,33.1-13.9,56.9-13.9
		c39.3,0,61.1,20.7,61.1,45.8c0,19.5-11,34.8-33.7,42.7v0.6c22.1,4,39.9,20.7,39.9,44.7c0,32.5-28.6,56.3-75.3,56.3
		c-23.8,0-43.9-6.2-54.6-13L412.9,164.9z"/>
</g>
</svg>
