<?xml version="1.0" encoding="utf-8"?>
<!-- Generator: Adobe Illustrator 21.0.0, SVG Export Plug-In . SVG Version: 6.00 Build 0)  -->
<svg version="1.1" id="Layer_1" xmlns="http://www.w3.org/2000/svg" xmlns:xlink="http://www.w3.org/1999/xlink" x="0px" y="0px"
	 viewBox="0 0 550 234" style="enable-background:new 0 0 550 234;" xml:space="preserve">
<style type="text/css">
	.st0{fill:#EEF0F5;}
	.st1{fill:#E2E6EF;}
	.st2{fill:url(#XMLID_2_);}
	.st3{fill:#BFCBEB;}
	.st4{fill:#9EAFDD;}
	.st5{fill:#2F3957;}
	.st6{fill:#65749F;}
	.st7{fill:#869BD4;}
	.st8{fill:#232B41;}
	.st9{fill:#E5EAF7;}
	.st10{fill:#E54750;}
	.st11{enable-background:new    ;}
	.st12{fill:#6D7FB6;}
	.st13{fill:#596179;}
	.st14{fill:#D9E0F3;}
	.st15{fill:url(#XMLID_7_);}
	.st16{fill:url(#XMLID_16_);}
</style>
<path id="XMLID_41_" class="st0" d="M208.5,75.7c0,0-16.8,10.5-16.5,24.6c0.4,14.1,14.7,18.8,14.5,26.8c-0.3,8-21.2,30.7-6.2,45.5
	c15,14.7,47.6,1.1,60.2,1.9c12.6,0.8,16.1,17.7,34.2,17.8c18.1,0.1,23.8-17.4,33.5-34.7c9.7-17.2,42.3,3.5,46.2-18
	c3.9-21.5-11.7-28.7-7-45.4s-6.9-38.5-28.6-47.8c-21.7-9.3-16.4-42.7-46.6-34.2s-77.1,5.9-77.9,44.7
	C214.1,70.6,208.5,75.7,208.5,75.7z"/>
<path id="XMLID_126_" class="st1" d="M287.5,171.6c-12.4,0-14.4-9.4-24.2-12.2c-8.3-2.4-19.7,3.2-28.5,3
	c-9.3-0.2-18.6-2.5-24.1-10.7c-8.3-12.3,1.5-20.7,2.6-32.2c0.6-7.2-8.2-13-8.4-22.2c-0.3-12.4,8.5-14.5,13.4-23.6
	c4.5-8.3,2.3-18.5,8.5-26.9c6.8-9.4,18.3-13.3,29.1-16c21.3-5.3,42-13.3,56.6,6.5c7.5,10.1,12.8,12.2,22.2,20.5
	c13.1,11.5,11.7,21.4,13.3,36.9c2,20,14.3,43.7-15.6,46.7c-13.1,1.3-11.7-0.3-19.1,11.9C307.3,162.9,300,171.7,287.5,171.6z"/>
<linearGradient id="XMLID_2_" gradientUnits="userSpaceOnUse" x1="286.5645" y1="2.0002" x2="286.5645" y2="28.9224" gradientTransform="matrix(1 0 0 -1 0 236)">
	<stop  offset="0" style="stop-color:#FFFFFF"/>
	<stop  offset="9.849999e-02" style="stop-color:#F7F8FB"/>
	<stop  offset="0.4121" style="stop-color:#E1E6EF"/>
	<stop  offset="0.7167" style="stop-color:#D4DBE8"/>
	<stop  offset="1" style="stop-color:#D0D7E6"/>
</linearGradient>
<path id="XMLID_68_" class="st2" d="M226.3,211.6c-29.4,10.3-10.5,23.8,35.1,21.5c45.6-2.3,76.5,6.9,95.1-6.9
	c18.5-13.9-22.6-19.1-64.8-19.1C249.4,207.1,238.3,207.3,226.3,211.6z"/>
<path id="XMLID_3_" class="st3" d="M282.9,41.7c-33.1,0-49.8,21.1-53.4,47.2c-3.7,26.1-6.2,33.2-17.5,20.2
	c-11.3-12.9-15.8,3.7-3.7,16.3c12.2,12.7,17,11.5,15.6,30.4c-1.4,18.8-4.2,37.7,9.9,37.1c14.1-0.6,14.7-14.9,22.6-14.9
	s8.8,17.5,23.2,14.9c14.4-2.5,9.4-14.1,21.2-15.8c4-0.6,3.7,13.2,20.6,12.4c17-0.8,13-10.7,18.4-14.3c5.4-3.7,12.4,6.7,21.5-0.3
	c9-7,0.3-12.6,3.7-20.8c3.4-8.2,0-16.9-4.5-16.9s-8.8,8.7-14.4,7.6c-5.7-1.1-8.5-9.3-8.5-20.8C337.5,112.6,344,41.7,282.9,41.7z"/>
<g id="XMLID_64_">
	<path id="XMLID_66_" class="st4" d="M281.9,73.9c20.4-2.9,32-11.1,32-11.1l10.6-1.9L276.3,42c-28.7,2.6-43.4,22.6-46.8,46.9
		c-0.4,2.8-0.8,5.3-1.1,7.7c1.3-0.6,2.4-1.1,3.3-1.8c3.8-2.9,11.4-27.3,11.4-27.3S261.5,76.8,281.9,73.9z"/>
	<path id="XMLID_67_" class="st4" d="M219.4,115.3c-2-0.6-4.4-2.6-7.4-6.1c-11.3-12.9-15.8,3.7-3.7,16.3c2,2.1,3.8,3.8,5.4,5.3
		C215.7,129.1,219.4,124.8,219.4,115.3z"/>
</g>
<path id="XMLID_56_" class="st5" d="M256.4,35.2c0,0,0.5-1.1-4.8-8c-5.4-6.9-8-11.6,1.8-14.9c9.8-3.3,35.6-19.5,48-8.5
	c12.4,11,36.3,20.1,44.1,30c7.8,9.9-20.9,27.1-20.9,27.1l-61.9-14.7L256.4,35.2z"/>
<ellipse id="XMLID_4_" class="st6" cx="259" cy="87.7" rx="5.8" ry="5.8"/>
<ellipse id="XMLID_5_" class="st6" cx="292.3" cy="87.7" rx="5.8" ry="5.8"/>
<ellipse id="XMLID_6_" class="st6" cx="275.3" cy="117.5" rx="4.5" ry="12.5"/>
<path id="XMLID_10_" class="st5" d="M256.8,43.3c0,0-17.8,4.6-16.5,10.4c1.3,5.8,26.3,17.1,48.3,13c5.7-1.1,16.9-7,16.9-7
	L256.8,43.3z"/>
<path id="XMLID_54_" class="st7" d="M309.9,114.2c0,0,6.5,17.4,6.4,27.6c-0.1,10.2,8.4,7.7,10.2,5.4c1.8-2.2,4.8-10.3,5.4-17.8
	L309.9,114.2z"/>
<path id="XMLID_12_" class="st3" d="M309.9,113.9c0,0,9.7,12.4,9.7,22.6c0,10.2,9.8,7.5,11.6-4c1.9-11.5-1.4-18.6-1.4-18.6H309.9z"
	/>
<path id="XMLID_11_" class="st8" d="M256.4,43.5v-8.4c0,0,10.4,7,31.2,11.6c13.7,3.1,27.9,5.4,36,6.6c3,0.4,4.4,3.9,2.6,6.3l0,0
	c-0.8,1.1-2.1,1.7-3.5,1.5l-17.3-1.5C305.3,59.8,267.7,56.5,256.4,43.5z"/>
<path id="XMLID_8_" class="st8" d="M212.2,128.2L212.2,128.2c-1.5,0.2-2.9-0.8-3.1-2.3l-3.8-23.6l5.4-0.9l3.8,23.6
	C214.7,126.6,213.7,127.9,212.2,128.2z"/>
<polygon id="XMLID_13_" class="st9" points="189.4,107.1 165.2,77.6 178.9,42.1 216.7,36.1 240.8,65.5 227.2,101 "/>
<polygon id="XMLID_14_" class="st10" points="190.5,104.2 168.3,77.1 180.9,44.5 215.6,39 237.8,66 225.2,98.6 "/>
<g id="XMLID_15_">
	<g>
	</g>
	<g>
		<g class="st11">
			<path class="st9" d="M178.2,83l3.5-16.5l2.2-0.4l8.9,14.5l-2.4,0.4l-2.6-4.4l-6.5,1l-1,5L178.2,83z M181.6,75.9l5.3-0.8l-2.3-4
				c-0.7-1.2-1.3-2.2-1.6-3c0,1-0.2,2.1-0.4,3.1L181.6,75.9z"/>
			<path class="st9" d="M194.4,80.4l-2.5-15.5l2.1-0.3l2.2,13.7l7.7-1.2l0.3,1.8L194.4,80.4z"/>
			<path class="st9" d="M209,78.1l-2.2-13.7l-5.2,0.8l-0.3-1.8l12.4-2l0.3,1.8l-5.2,0.8l2.2,13.7L209,78.1z"/>
			<path class="st9" d="M216.1,69.2c-0.4-2.6,0-4.7,1.1-6.4c1.2-1.7,2.8-2.7,5-3.1c1.4-0.2,2.8-0.1,4.1,0.4c1.3,0.5,2.3,1.3,3.1,2.4
				c0.8,1.1,1.3,2.5,1.6,4c0.3,1.6,0.2,3-0.3,4.4c-0.4,1.3-1.2,2.4-2.3,3.3c-1.1,0.8-2.3,1.3-3.6,1.6c-1.5,0.2-2.8,0.1-4.1-0.4
				c-1.3-0.5-2.3-1.3-3.1-2.5C216.8,71.8,216.3,70.5,216.1,69.2z M218.2,68.9c0.3,1.9,1,3.3,2.2,4.2c1.2,0.9,2.5,1.3,4.1,1
				c1.6-0.2,2.8-1,3.6-2.2c0.8-1.3,1.1-2.9,0.8-4.9c-0.2-1.3-0.6-2.3-1.2-3.2c-0.6-0.9-1.3-1.5-2.2-1.9c-0.9-0.4-1.9-0.5-2.9-0.3
				c-1.5,0.2-2.6,0.9-3.5,2.1C218.1,64.8,217.8,66.5,218.2,68.9z"/>
		</g>
	</g>
</g>
<path id="XMLID_61_" class="st12" d="M284.9,18.7c0,0,3.3,3.1,7,1.6l2.4,2.8c0,0-3.8,3.4-3.4,6.7c0.3,3.3,2.1,7.8-5.4,8.9
	c-5.4,0.8-6.2,0.2-6.2,0.2s-4.3-3-5.7-5.8c-1.4-2.8,2.2-5,2.3-7.9c0.1-2.9-0.8-5.6-0.8-5.6l2.5-1.8
	C277.6,17.9,280.7,20.5,284.9,18.7z"/>
<path id="XMLID_9_" class="st7" d="M273.9,133.9c0,0,6.1,1.4,9-3.9c0,0-0.4,5.9-4.5,7C274.4,138.2,273.9,133.9,273.9,133.9z"/>
<path id="XMLID_69_" class="st13" d="M345.4,33.8c-7.8-9.9-31.7-19-44.1-30c-9.1-8.1-25.6-1.5-37.6,3.9c0,0,23-7.4,30.5-2.5
	c7.5,5,34.6,27.7,42.6,30.8c8,3.1-2.5,17.9-2.5,17.9C341.9,48.1,350,39.7,345.4,33.8z"/>
<path id="XMLID_63_" class="st14" d="M331.8,129.4c0,0-0.2-9.6-2-15s-4.7-9.4-4.7-9.4S332.1,122.3,331.8,129.4z"/>
<path id="XMLID_72_" class="st14" d="M365.4,142.1l-0.3-0.7c-1.1-2.5-2.8-4.1-4.8-4.1c-4.5,0-8.8,8.7-14.4,7.6
	c-5.7-1.1-8.5-9.3-8.5-20.8c0-7.1,2.4-36.5-9.8-58.2l-3.2-5c0,0,10.2,18.3,10.2,37.6c0,19.2-4,48.8,8.3,50.7
	S357.7,134.4,365.4,142.1z"/>
<g id="XMLID_71_">
	<path id="XMLID_73_" class="st4" d="M339.7,175.3c5.4-3.7,12.6,6.7,21.6-0.3c4.5-3.5,4.7-6.7,4.1-9.9l0,0c-1.2,6.9-9,7.7-18.2,4.9
		c-9.1-2.8-12.8,1.8-15.5,10.1c-2.7,8.3-17.1,2.3-26.3-4c-9.1-6.3-10.9,0.7-21.9,6.2c-11,5.5-13.6-6.8-24.7-9
		c-11-2.2-18.4,12.6-27.8,11.8c-6.9-0.6-7.5-19.4-7.4-29.5c0,0.1,0,0.2,0,0.3c-1.4,18.8-4.2,37.7,9.9,37.1
		c14.1-0.6,14.7-14.9,22.6-14.9c7.9,0,8.8,17.5,23.2,14.9c14.4-2.5,9.4-14.1,21.2-15.8c4-0.6,3.7,13.2,20.6,12.4
		C338.3,188.8,334.4,178.9,339.7,175.3z"/>
	<path id="XMLID_74_" class="st4" d="M224.1,149.4L224.1,149.4L224.1,149.4z"/>
</g>
<g id="XMLID_233_">
	
		<linearGradient id="XMLID_7_" gradientUnits="userSpaceOnUse" x1="87.108" y1="213.238" x2="87.108" y2="24.763" gradientTransform="matrix(1 0 0 -1 0 236)">
		<stop  offset="0" style="stop-color:#E1E5EF"/>
		<stop  offset="0.2371" style="stop-color:#D4DBE8"/>
		<stop  offset="0.4612" style="stop-color:#D0D7E6"/>
		<stop  offset="1" style="stop-color:#C6CDDB"/>
	</linearGradient>
	<path id="XMLID_237_" class="st15" d="M99.7,174.9H8.6L0,138.3L97.6,22.8h52.7v113.4h23.9v38.8h-23.9v36.4H99.7V174.9z M99.7,136.4
		V82.6l-44.9,53.7L99.7,136.4L99.7,136.4z"/>
	
		<linearGradient id="XMLID_16_" gradientUnits="userSpaceOnUse" x1="462.8915" y1="213.238" x2="462.8915" y2="24.763" gradientTransform="matrix(1 0 0 -1 0 236)">
		<stop  offset="0" style="stop-color:#E1E5EF"/>
		<stop  offset="0.2371" style="stop-color:#D4DBE8"/>
		<stop  offset="0.4612" style="stop-color:#D0D7E6"/>
		<stop  offset="1" style="stop-color:#C6CDDB"/>
	</linearGradient>
	<path id="XMLID_234_" class="st16" d="M475.5,174.9h-91.1l-8.6-36.6l97.6-115.5h52.7v113.4H550v38.8h-23.9v36.4h-50.5V174.9z
		 M475.5,136.4V82.6l-44.9,53.7L475.5,136.4L475.5,136.4z"/>
</g>
</svg>
