<?xml version="1.0" encoding="utf-8"?>
<!-- Generator: Adobe Illustrator 21.0.0, SVG Export Plug-In . SVG Version: 6.00 Build 0)  -->
<svg version="1.1" id="Layer_1" xmlns="http://www.w3.org/2000/svg" xmlns:xlink="http://www.w3.org/1999/xlink" x="0px" y="0px"
	 viewBox="0 0 550 234" style="enable-background:new 0 0 550 234;" xml:space="preserve">
<style type="text/css">
	.st0{fill:#EEF0F5;}
	.st1{fill:#E2E6EF;}
	.st2{fill:url(#XMLID_2_);}
	.st3{fill:url(#SVGID_1_);}
	.st4{fill:url(#SVGID_2_);}
	.st5{fill:url(#XMLID_7_);}
	.st6{fill:#BFCBEB;}
	.st7{fill:#9EAFDD;}
	.st8{fill:#232B41;}
	.st9{fill:#2F3957;}
	.st10{fill:#65749F;}
	.st11{fill:#869BD4;}
	.st12{fill:#E5EAF7;}
	.st13{fill:#E54750;}
	.st14{enable-background:new    ;}
	.st15{fill:#6D7FB6;}
	.st16{fill:#596179;}
	.st17{fill:#D9E0F3;}
</style>
<g>
	<path id="XMLID_41_" class="st0" d="M382.5,75.7c0,0-16.8,10.5-16.5,24.6c0.4,14.1,14.7,18.8,14.5,26.8c-0.3,8-21.2,30.7-6.2,45.5
		c15,14.7,47.6,1.1,60.2,1.9c12.6,0.8,16.1,17.7,34.2,17.8c18.1,0.1,23.8-17.4,33.5-34.7c9.7-17.2,42.3,3.5,46.2-18
		c3.9-21.5-11.7-28.7-7-45.4c4.8-16.7-6.9-38.5-28.6-47.8c-21.7-9.3-16.4-42.7-46.6-34.2s-77.1,5.9-77.9,44.7
		C388.1,70.6,382.5,75.7,382.5,75.7z"/>
	<path id="XMLID_126_" class="st1" d="M461.5,171.6c-12.4,0-14.4-9.4-24.2-12.2c-8.3-2.4-19.7,3.2-28.5,3
		c-9.3-0.2-18.6-2.5-24.1-10.7c-8.3-12.3,1.5-20.7,2.6-32.2c0.6-7.2-8.2-13-8.4-22.2c-0.3-12.4,8.5-14.5,13.4-23.6
		c4.5-8.3,2.3-18.5,8.5-26.9c6.8-9.4,18.3-13.3,29.1-16c21.3-5.3,42-13.3,56.6,6.5c7.5,10.1,12.8,12.2,22.2,20.5
		c13.1,11.5,11.7,21.4,13.3,36.9c2,20,14.3,43.7-15.6,46.7c-13.1,1.3-11.7-0.3-19.1,11.9C481.3,162.9,474,171.7,461.5,171.6z"/>
</g>
<g id="XMLID_233_">
	
		<linearGradient id="XMLID_2_" gradientUnits="userSpaceOnUse" x1="83.2809" y1="197.3365" x2="83.2809" y2="31.5667" gradientTransform="matrix(1 0 0 -1 0 236)">
		<stop  offset="0" style="stop-color:#E1E5EF"/>
		<stop  offset="0.2371" style="stop-color:#D4DBE8"/>
		<stop  offset="0.4612" style="stop-color:#D0D7E6"/>
		<stop  offset="1" style="stop-color:#C6CDDB"/>
	</linearGradient>
	<path id="XMLID_237_" class="st2" d="M94.4,172.5H14.2l-7.6-32.2L92.5,38.7h46.3v99.7h21v34.1h-21v32H94.4V172.5z M94.4,138.6V91.3
		l-39.5,47.3L94.4,138.6L94.4,138.6z"/>
</g>
<g>
	<linearGradient id="SVGID_1_" gradientUnits="userSpaceOnUse" x1="168.0426" y1="120.9717" x2="243.526" y2="120.9717">
		<stop  offset="0" style="stop-color:#E1E5EF"/>
		<stop  offset="0.2371" style="stop-color:#D4DBE8"/>
		<stop  offset="0.4612" style="stop-color:#D0D7E6"/>
		<stop  offset="1" style="stop-color:#C6CDDB"/>
	</linearGradient>
	<path class="st3" d="M206.3,72.8h-0.5l-31.4,14.9L168,58.9l43.6-20.3h31.9v164.6h-37.2V72.8z"/>
	<linearGradient id="SVGID_2_" gradientUnits="userSpaceOnUse" x1="259.5122" y1="120.8646" x2="383.8831" y2="120.8646">
		<stop  offset="0" style="stop-color:#E1E5EF"/>
		<stop  offset="0.2371" style="stop-color:#D4DBE8"/>
		<stop  offset="0.4612" style="stop-color:#D0D7E6"/>
		<stop  offset="1" style="stop-color:#C6CDDB"/>
	</linearGradient>
	<path class="st4" d="M274.7,175.4c4.8,0.5,9.1,0.5,16.7,0c11.7-0.8,23.6-4.1,32.4-10.1c10.6-7.3,17.7-18,20.8-30.4l-0.8-0.3
		c-7.3,7.6-18,11.9-32.9,11.9c-27.9,0-51.4-19.5-51.4-51.4c0-32.2,25.8-59.3,62.1-59.3c42.3,0,62.3,32.4,62.3,70.9
		c0,34.2-10.9,59.3-28.9,75.7c-15.7,14.2-37.2,22-62.8,23c-6.6,0.5-13.2,0.3-17.5,0V175.4z M298,92.9c0,14.2,7.6,26.3,23.3,26.3
		c10.4,0,17.7-5.1,21.3-10.9c1.3-2.3,2-4.8,2-9.6c0-17.5-6.6-34.7-24.1-34.7C307.4,64,297.8,75.6,298,92.9z"/>
</g>
<linearGradient id="XMLID_7_" gradientUnits="userSpaceOnUse" x1="460.5645" y1="2.0002" x2="460.5645" y2="28.9224" gradientTransform="matrix(1 0 0 -1 0 236)">
	<stop  offset="0" style="stop-color:#FFFFFF"/>
	<stop  offset="9.849999e-02" style="stop-color:#F7F8FB"/>
	<stop  offset="0.4121" style="stop-color:#E1E6EF"/>
	<stop  offset="0.7167" style="stop-color:#D4DBE8"/>
	<stop  offset="1" style="stop-color:#D0D7E6"/>
</linearGradient>
<path id="XMLID_68_" class="st5" d="M400.3,211.6c-29.4,10.3-10.5,23.8,35.1,21.5c45.6-2.3,76.5,6.9,95.1-6.9
	c18.5-13.9-22.6-19.1-64.8-19.1C423.4,207.1,412.3,207.3,400.3,211.6z"/>
<path id="XMLID_3_" class="st6" d="M456.9,41.7c-33.1,0-49.8,21.1-53.4,47.2c-3.7,26.1-6.2,33.2-17.5,20.2
	c-11.3-12.9-15.8,3.7-3.7,16.3c12.2,12.7,17,11.5,15.6,30.4c-1.4,18.8-4.2,37.7,9.9,37.1c14.1-0.6,14.7-14.9,22.6-14.9
	s8.8,17.5,23.2,14.9c14.4-2.5,9.4-14.1,21.2-15.8c4-0.6,3.7,13.2,20.6,12.4c17-0.8,13-10.7,18.4-14.3c5.4-3.7,12.4,6.7,21.5-0.3
	c9-7,0.3-12.6,3.7-20.8c3.4-8.2,0-16.9-4.5-16.9c-4.5,0-8.8,8.7-14.4,7.6c-5.7-1.1-8.5-9.3-8.5-20.8
	C511.5,112.6,518,41.7,456.9,41.7z"/>
<g id="XMLID_64_">
	<path id="XMLID_66_" class="st7" d="M455.9,73.9c20.4-2.9,32-11.1,32-11.1l10.6-1.9L450.3,42c-28.7,2.6-43.4,22.6-46.8,46.9
		c-0.4,2.8-0.8,5.3-1.1,7.7c1.3-0.6,2.4-1.1,3.3-1.8c3.8-2.9,11.4-27.3,11.4-27.3S435.5,76.8,455.9,73.9z"/>
	<path id="XMLID_67_" class="st7" d="M393.4,115.3c-2-0.6-4.4-2.6-7.4-6.1c-11.3-12.9-15.8,3.7-3.7,16.3c2,2.1,3.8,3.8,5.4,5.3
		C389.7,129.1,393.4,124.8,393.4,115.3z"/>
</g>
<path id="XMLID_8_" class="st8" d="M386.2,128.2L386.2,128.2c-1.5,0.2-2.9-0.8-3.1-2.3l-3.8-23.6l5.4-0.9l3.8,23.6
	C388.7,126.6,387.7,127.9,386.2,128.2z"/>
<path id="XMLID_56_" class="st9" d="M430.4,35.2c0,0,0.5-1.1-4.8-8c-5.4-6.9-8-11.6,1.8-14.9c9.8-3.3,35.6-19.5,48-8.5
	c12.4,11,36.3,20.1,44.1,30c7.8,9.9-20.9,27.1-20.9,27.1l-61.9-14.7L430.4,35.2z"/>
<ellipse id="XMLID_4_" class="st10" cx="433" cy="87.7" rx="5.8" ry="5.8"/>
<ellipse id="XMLID_5_" class="st10" cx="466.3" cy="87.7" rx="5.8" ry="5.8"/>
<ellipse id="XMLID_6_" class="st10" cx="449.3" cy="117.5" rx="4.5" ry="12.5"/>
<path id="XMLID_10_" class="st9" d="M430.8,43.3c0,0-17.8,4.6-16.5,10.4c1.3,5.8,26.3,17.1,48.3,13c5.7-1.1,16.9-7,16.9-7
	L430.8,43.3z"/>
<path id="XMLID_54_" class="st11" d="M483.9,114.2c0,0,6.5,17.4,6.4,27.6c-0.1,10.2,8.4,7.7,10.2,5.4c1.8-2.2,4.8-10.3,5.4-17.8
	L483.9,114.2z"/>
<path id="XMLID_12_" class="st6" d="M483.9,113.9c0,0,9.7,12.4,9.7,22.6c0,10.2,9.8,7.5,11.6-4c1.9-11.5-1.4-18.6-1.4-18.6H483.9z"
	/>
<path id="XMLID_11_" class="st8" d="M430.4,43.5v-8.4c0,0,10.4,7,31.2,11.6c13.7,3.1,27.9,5.4,36,6.6c3,0.4,4.4,3.9,2.6,6.3l0,0
	c-0.8,1.1-2.1,1.7-3.5,1.5l-17.3-1.5C479.3,59.8,441.7,56.5,430.4,43.5z"/>
<polygon id="XMLID_13_" class="st12" points="363.4,107.1 339.2,77.6 352.9,42.1 390.7,36.1 414.8,65.5 401.2,101 "/>
<polygon id="XMLID_14_" class="st13" points="364.5,104.2 342.3,77.1 354.9,44.5 389.6,39 411.8,66 399.2,98.6 "/>
<g id="XMLID_15_">
	<g>
	</g>
	<g>
	</g>
	<g class="st14">
		<path class="st12" d="M354.6,85l3.3-15.8l2.1-0.3l8.4,13.9l-2.2,0.4l-2.4-4.2l-6.2,1l-0.9,4.8L354.6,85z M357.9,78.2l5-0.8
			l-2.2-3.9c-0.7-1.2-1.2-2.1-1.5-2.9c0,1-0.1,2-0.3,3L357.9,78.2z"/>
		<path class="st12" d="M369.9,82.5l-2.4-14.8l2-0.3l2.1,13.1l7.3-1.2l0.3,1.8L369.9,82.5z"/>
		<path class="st12" d="M383.6,80.3l-2.1-13.1l-4.9,0.8l-0.3-1.8l11.7-1.9l0.3,1.8l-4.9,0.8l2.1,13.1L383.6,80.3z"/>
		<path class="st12" d="M390.4,71.8c-0.4-2.5,0-4.5,1-6.1c1.1-1.6,2.7-2.6,4.8-2.9c1.4-0.2,2.6-0.1,3.8,0.4c1.2,0.5,2.2,1.3,2.9,2.3
			c0.8,1.1,1.3,2.4,1.5,3.8c0.2,1.5,0.2,2.9-0.3,4.2c-0.4,1.3-1.1,2.3-2.1,3.1c-1,0.8-2.2,1.3-3.4,1.5c-1.4,0.2-2.7,0.1-3.9-0.4
			s-2.2-1.3-2.9-2.4C391,74.2,390.6,73.1,390.4,71.8z M392.4,71.5c0.3,1.8,1,3.1,2.1,4c1.1,0.9,2.4,1.2,3.8,1c1.5-0.2,2.6-1,3.4-2.1
			c0.8-1.2,1-2.7,0.7-4.7c-0.2-1.2-0.6-2.2-1.1-3.1c-0.6-0.8-1.3-1.4-2.1-1.8c-0.9-0.4-1.8-0.5-2.8-0.3c-1.4,0.2-2.5,0.9-3.3,2
			C392.3,67.5,392,69.2,392.4,71.5z"/>
	</g>
</g>
<path id="XMLID_61_" class="st15" d="M458.9,18.7c0,0,3.3,3.1,7,1.6l2.4,2.8c0,0-3.8,3.4-3.4,6.7c0.3,3.3,2.1,7.8-5.4,8.9
	c-5.4,0.8-6.2,0.2-6.2,0.2s-4.3-3-5.7-5.8c-1.4-2.8,2.2-5,2.3-7.9c0.1-2.9-0.8-5.6-0.8-5.6l2.5-1.8
	C451.6,17.9,454.7,20.5,458.9,18.7z"/>
<path id="XMLID_9_" class="st11" d="M447.9,133.9c0,0,6.1,1.4,9-3.9c0,0-0.4,5.9-4.5,7C448.4,138.2,447.9,133.9,447.9,133.9z"/>
<path id="XMLID_69_" class="st16" d="M519.4,33.8c-7.8-9.9-31.7-19-44.1-30c-9.1-8.1-25.6-1.5-37.6,3.9c0,0,23-7.4,30.5-2.5
	c7.5,5,34.6,27.7,42.6,30.8c8,3.1-2.5,17.9-2.5,17.9C515.9,48.1,524,39.7,519.4,33.8z"/>
<path id="XMLID_63_" class="st17" d="M505.8,129.4c0,0-0.2-9.6-2-15s-4.7-9.4-4.7-9.4S506.1,122.3,505.8,129.4z"/>
<path id="XMLID_72_" class="st17" d="M539.4,142.1l-0.3-0.7c-1.1-2.5-2.8-4.1-4.8-4.1c-4.5,0-8.8,8.7-14.4,7.6
	c-5.7-1.1-8.5-9.3-8.5-20.8c0-7.1,2.4-36.5-9.8-58.2l-3.2-5c0,0,10.2,18.3,10.2,37.6c0,19.2-4,48.8,8.3,50.7
	C529.3,151.1,531.7,134.4,539.4,142.1z"/>
<g id="XMLID_71_">
	<path id="XMLID_73_" class="st7" d="M513.7,175.3c5.4-3.7,12.6,6.7,21.6-0.3c4.5-3.5,4.7-6.7,4.1-9.9l0,0c-1.2,6.9-9,7.7-18.2,4.9
		c-9.1-2.8-12.8,1.8-15.5,10.1c-2.7,8.3-17.1,2.3-26.3-4c-9.1-6.3-10.9,0.7-21.9,6.2c-11,5.5-13.6-6.8-24.7-9
		c-11-2.2-18.4,12.6-27.8,11.8c-6.9-0.6-7.5-19.4-7.4-29.5c0,0.1,0,0.2,0,0.3c-1.4,18.8-4.2,37.7,9.9,37.1
		c14.1-0.6,14.7-14.9,22.6-14.9c7.9,0,8.8,17.5,23.2,14.9c14.4-2.5,9.4-14.1,21.2-15.8c4-0.6,3.7,13.2,20.6,12.4
		C512.3,188.8,508.4,178.9,513.7,175.3z"/>
	<path id="XMLID_74_" class="st7" d="M398.1,149.4L398.1,149.4L398.1,149.4z"/>
</g>
</svg>
