<?xml version="1.0" encoding="utf-8"?>
<!-- Generator: Adobe Illustrator 21.0.0, SVG Export Plug-In . SVG Version: 6.00 Build 0)  -->
<svg version="1.1" id="Layer_1" xmlns="http://www.w3.org/2000/svg" xmlns:xlink="http://www.w3.org/1999/xlink" x="0px" y="0px"
	 viewBox="0 0 162 35" style="enable-background:new 0 0 162 35;" xml:space="preserve">
<style type="text/css">
	.st0{fill:#FFFFFF;}
</style>
<g>
	<path class="st0" d="M70.8,21.7c0,2.3,1.5,4,4,4c3.3,0,3.3-2.2,5.1-2.2c1,0,1.8,0.9,1.8,1.7c0,2.6-4.2,3.9-6.9,3.9
		c-6.1,0-8.4-4.1-8.4-7.9c0-5.1,3.1-8.5,8.3-8.5c5,0,7.9,3.6,7.9,7.2c0,1.5-0.4,1.9-1.9,1.9H70.8z M78.5,19.1
		c-0.2-2-1.7-3.5-3.7-3.5c-2.2,0-3.5,1.3-4,3.5H78.5z"/>
	<path class="st0" d="M85.6,8.9c0-1.4,0.9-2.2,2.2-2.2S90,7.5,90,8.9v18c0,1.4-0.9,2.2-2.2,2.2s-2.2-0.7-2.2-2.2V8.9z"/>
	<path class="st0" d="M96.2,6.6c1.3,0,2.3,1,2.3,2.3s-1,2.3-2.3,2.3c-1.3,0-2.3-1-2.3-2.3S94.9,6.6,96.2,6.6z M94,14.8
		c0-1.2,0.5-2.2,2.2-2.2c1.7,0,2.2,1,2.2,2.2v12.1c0,1.2-0.5,2.2-2.2,2.2c-1.7,0-2.2-1-2.2-2.2V14.8z"/>
	<path class="st0" d="M107.4,8.2c0.4-1.1,1.2-1.5,2.4-1.5h1.2c1.1,0,2.1,0.3,2.6,1.8l5.9,16.5c0.2,0.5,0.5,1.3,0.5,1.9
		c0,1.2-1,2.2-2.3,2.2c-1.1,0-1.9-0.4-2.2-1.3l-1.3-3.6h-7.9l-1.3,3.6c-0.3,1-1,1.3-2.2,1.3c-1.3,0-2.3-0.8-2.3-2.2
		c0-0.5,0.3-1.4,0.5-1.9L107.4,8.2z M110.4,12L110.4,12l-3,8.7h5.8L110.4,12z"/>
	<path class="st0" d="M122,14.7c0-1.3,0.6-2.1,2-2.1c1.3,0,2,0.7,2,2.1v0.7h0.1c0.7-1.9,2.5-2.8,4.6-2.8c3.7,0,6.9,2.7,6.9,8.3
		c0,4.2-2.1,8.1-6.7,8.1c-2,0-3.5-0.8-4.3-2.2h-0.1v5.8c0,1.4-0.9,2.2-2.2,2.2s-2.2-0.7-2.2-2.2V14.7z M129.7,16
		c-2.5,0-3.5,2.3-3.5,4.8c0,2.2,0.8,4.9,3.5,4.9c2.8,0,3.5-2.8,3.5-4.9C133.2,18.2,132,16.1,129.7,16z"/>
	<path class="st0" d="M140.4,14.7c0-1.3,0.6-2.1,2-2.1c1.3,0,2,0.7,2,2.1v0.7h0.1c0.7-1.9,2.5-2.8,4.6-2.8c3.7,0,6.9,2.7,6.9,8.3
		c0,4.2-2.1,8.1-6.7,8.1c-2,0-3.5-0.8-4.3-2.2h-0.1v5.8c0,1.4-0.9,2.2-2.2,2.2s-2.2-0.7-2.2-2.2V14.7z M148,16
		c-2.5,0-3.5,2.3-3.5,4.8c0,2.2,0.8,4.9,3.5,4.9c2.8,0,3.5-2.8,3.5-4.9C151.5,18.2,150.3,16.1,148,16z"/>
</g>
<path class="st0" d="M61.9,15.4C53.7,1.5,38,1.5,29.8,15.4c2.7-7.3,9.1-12,16-12C52.8,3.5,59.1,8.2,61.9,15.4L61.9,15.4z M45.9,28.5
	c-2.6,0-5-1.3-6.5-3.2h3.9c0.8,0.4,1.7,0.7,2.6,0.7c1,0,1.9-0.2,2.6-0.7h3.1h0.7C50.9,27.3,48.6,28.5,45.9,28.5L45.9,28.5z M45,35
	H23.6c-0.8,0-1.5-0.6-1.5-1.3l0,0c0-0.7,0.7-1.3,1.5-1.3h11.1c-1.1-0.6-2.2-1.3-3.1-2.1H16.2c-0.8,0-1.5-0.6-1.5-1.3l0,0
	c0-0.7,0.7-1.3,1.5-1.3h13c-0.6-0.8-1.1-1.6-1.5-2.4H9.7c-0.8,0-1.5-0.6-1.5-1.3c0-0.7,0.7-1.3,1.5-1.3h17.1h25.1h11.2
	C61.3,29.7,53.8,35,45,35L45,35z M35.5,20.1h26.3c2.1,0,2.3-1.2,2-2.7c-1.5-8.3-7.4-14.5-16-15.7c-0.1-1-0.9-1.7-1.8-1.7
	c-1,0-1.7,0.7-1.8,1.7c-2,0.2-4.1,0.9-5.2,1.4c-6.4,2.9-10,7.6-11.5,14.6H9.4c-0.7,0-1.3,0.6-1.3,1.3c0,0.7,0.6,1.3,1.3,1.3H32H35.5
	z"/>
</svg>
