<?xml version="1.0" encoding="utf-8"?>
<!-- Generator: Adobe Illustrator 21.0.0, SVG Export Plug-In . SVG Version: 6.00 Build 0)  -->
<svg version="1.1" id="Layer_1" xmlns="http://www.w3.org/2000/svg" xmlns:xlink="http://www.w3.org/1999/xlink" x="0px" y="0px"
	 viewBox="0 0 162 35" style="enable-background:new 0 0 162 35;" xml:space="preserve">
<style type="text/css">
	.st0{fill:url(#SVGID_1_);}
</style>
<g>
	<path d="M68.5,21.7c0,2.3,1.5,4,4,4c3.3,0,3.3-2.2,5.1-2.2c1,0,1.8,0.9,1.8,1.7c0,2.6-4.2,3.9-6.9,3.9c-6.1,0-8.4-4.1-8.4-7.9
		c0-5.1,3.1-8.5,8.3-8.5c5,0,7.9,3.6,7.9,7.2c0,1.5-0.4,1.9-1.9,1.9H68.5z M76.2,19.1c-0.2-2-1.7-3.5-3.7-3.5c-2.2,0-3.5,1.3-4,3.5
		H76.2z"/>
	<path d="M83.4,8.9c0-1.4,0.9-2.2,2.2-2.2s2.2,0.7,2.2,2.2v18c0,1.4-0.9,2.2-2.2,2.2s-2.2-0.7-2.2-2.2V8.9z"/>
	<path d="M93.9,6.6c1.3,0,2.3,1,2.3,2.3s-1,2.3-2.3,2.3c-1.3,0-2.3-1-2.3-2.3S92.7,6.6,93.9,6.6z M91.7,14.8c0-1.2,0.5-2.2,2.2-2.2
		c1.7,0,2.2,1,2.2,2.2v12.1c0,1.2-0.5,2.2-2.2,2.2c-1.7,0-2.2-1-2.2-2.2V14.8z"/>
	<path d="M105.2,8.2c0.4-1.1,1.2-1.5,2.4-1.5h1.2c1.1,0,2.1,0.3,2.6,1.8l5.9,16.5c0.2,0.5,0.5,1.3,0.5,1.9c0,1.2-1,2.2-2.3,2.2
		c-1.1,0-1.9-0.4-2.2-1.3l-1.3-3.6h-7.9l-1.3,3.6c-0.3,1-1,1.3-2.2,1.3c-1.3,0-2.3-0.8-2.3-2.2c0-0.5,0.3-1.4,0.5-1.9L105.2,8.2z
		 M108.2,12L108.2,12l-3,8.7h5.8L108.2,12z"/>
	<path d="M119.8,14.7c0-1.3,0.6-2.1,2-2.1c1.3,0,2,0.7,2,2.1v0.7h0.1c0.7-1.9,2.5-2.8,4.6-2.8c3.7,0,6.9,2.7,6.9,8.3
		c0,4.2-2.1,8.1-6.7,8.1c-2,0-3.5-0.8-4.3-2.2h-0.1v5.8c0,1.4-0.9,2.2-2.2,2.2s-2.2-0.7-2.2-2.2V14.7z M127.4,16
		c-2.5,0-3.5,2.3-3.5,4.8c0,2.2,0.8,4.9,3.5,4.9c2.8,0,3.5-2.8,3.5-4.9C130.9,18.2,129.8,16.1,127.4,16z"/>
	<path d="M138.1,14.7c0-1.3,0.6-2.1,2-2.1c1.3,0,2,0.7,2,2.1v0.7h0.1c0.7-1.9,2.5-2.8,4.6-2.8c3.7,0,6.9,2.7,6.9,8.3
		c0,4.2-2.1,8.1-6.7,8.1c-2,0-3.5-0.8-4.3-2.2h-0.1v5.8c0,1.4-0.9,2.2-2.2,2.2s-2.2-0.7-2.2-2.2V14.7z M145.8,16
		c-2.5,0-3.5,2.3-3.5,4.8c0,2.2,0.8,4.9,3.5,4.9c2.8,0,3.5-2.8,3.5-4.9C149.2,18.2,148.1,16.1,145.8,16z"/>
</g>
<linearGradient id="SVGID_1_" gradientUnits="userSpaceOnUse" x1="5.9167" y1="17.5" x2="61.6274" y2="17.5">
	<stop  offset="0" style="stop-color:#F78F3D"/>
	<stop  offset="0.4876" style="stop-color:#F05359"/>
	<stop  offset="1" style="stop-color:#D11F26"/>
</linearGradient>
<path class="st0" d="M59.6,15.4c-8.2-13.9-23.9-13.9-32.1,0c2.7-7.3,9.1-12,16-12C50.6,3.5,56.9,8.2,59.6,15.4L59.6,15.4z
	 M43.7,28.5c-2.6,0-5-1.3-6.5-3.2h3.9c0.8,0.4,1.7,0.7,2.6,0.7c1,0,1.9-0.2,2.6-0.7h3.1h0.7C48.7,27.3,46.3,28.5,43.7,28.5
	L43.7,28.5z M42.7,35H21.4c-0.8,0-1.5-0.6-1.5-1.3l0,0c0-0.7,0.7-1.3,1.5-1.3h11.1c-1.1-0.6-2.2-1.3-3.1-2.1H14
	c-0.8,0-1.5-0.6-1.5-1.3l0,0c0-0.7,0.7-1.3,1.5-1.3h13c-0.6-0.8-1.1-1.6-1.5-2.4H7.4c-0.8,0-1.5-0.6-1.5-1.3c0-0.7,0.7-1.3,1.5-1.3
	h17.1h25.1h11.2C59,29.7,51.6,35,42.7,35L42.7,35z M33.3,20.1h26.3c2.1,0,2.3-1.2,2-2.7c-1.5-8.3-7.4-14.5-16-15.7
	c-0.1-1-0.9-1.7-1.8-1.7s-1.7,0.7-1.8,1.7c-2,0.2-4.1,0.9-5.2,1.4c-6.4,2.9-10,7.6-11.5,14.6H7.2c-0.7,0-1.3,0.6-1.3,1.3
	c0,0.7,0.6,1.3,1.3,1.3h22.6H33.3z"/>
</svg>
